<mxfile host="app.diagrams.net" modified="2021-01-04T15:53:24.115Z" agent="5.0 (Macintosh; Intel Mac OS X 10_15_6) AppleWebKit/605.1.15 (KHTML, like Gecko) Version/14.0.2 Safari/605.1.15" etag="-H-ePphQwrvqsTnmWTJ9" version="14.1.8" type="github">
  <diagram id="j28EORh8lJE7uRna3Kz6" name="Page-1">
    <mxGraphModel dx="3062" dy="860" grid="1" gridSize="10" guides="1" tooltips="1" connect="1" arrows="1" fold="1" page="1" pageScale="1" pageWidth="827" pageHeight="1169" math="0" shadow="0">
      <root>
        <mxCell id="0" />
        <mxCell id="1" parent="0" />
        <mxCell id="_OzTPV2B18LDZemACP7o-24" style="edgeStyle=orthogonalEdgeStyle;orthogonalLoop=1;jettySize=auto;html=1;entryX=0.425;entryY=-0.033;entryDx=0;entryDy=0;entryPerimeter=0;shadow=1;" edge="1" parent="1" source="_OzTPV2B18LDZemACP7o-1" target="_OzTPV2B18LDZemACP7o-11">
          <mxGeometry relative="1" as="geometry" />
        </mxCell>
        <mxCell id="_OzTPV2B18LDZemACP7o-25" style="edgeStyle=orthogonalEdgeStyle;orthogonalLoop=1;jettySize=auto;html=1;entryX=0.5;entryY=0;entryDx=0;entryDy=0;shadow=1;" edge="1" parent="1" source="_OzTPV2B18LDZemACP7o-1" target="_OzTPV2B18LDZemACP7o-12">
          <mxGeometry relative="1" as="geometry" />
        </mxCell>
        <mxCell id="_OzTPV2B18LDZemACP7o-26" style="edgeStyle=orthogonalEdgeStyle;orthogonalLoop=1;jettySize=auto;html=1;shadow=1;" edge="1" parent="1" source="_OzTPV2B18LDZemACP7o-1" target="_OzTPV2B18LDZemACP7o-13">
          <mxGeometry relative="1" as="geometry" />
        </mxCell>
        <mxCell id="_OzTPV2B18LDZemACP7o-1" value="The Synaxis App" style="whiteSpace=wrap;html=1;shadow=1;rounded=1;fillColor=#d5e8d4;gradientColor=#97d077;strokeColor=#82b366;" vertex="1" parent="1">
          <mxGeometry x="354" width="120" height="60" as="geometry" />
        </mxCell>
        <mxCell id="_OzTPV2B18LDZemACP7o-2" value="Church History Map" style="whiteSpace=wrap;html=1;shadow=1;rounded=1;fillColor=#d5e8d4;strokeColor=#82b366;" vertex="1" parent="1">
          <mxGeometry x="280" y="200" width="120" height="60" as="geometry" />
        </mxCell>
        <mxCell id="_OzTPV2B18LDZemACP7o-3" value="Orthodox Marketplace" style="whiteSpace=wrap;html=1;shadow=1;rounded=1;fillColor=#e1d5e7;strokeColor=#9673a6;" vertex="1" parent="1">
          <mxGeometry x="707" y="200" width="120" height="60" as="geometry" />
        </mxCell>
        <mxCell id="_OzTPV2B18LDZemACP7o-4" value="Parish Locator" style="whiteSpace=wrap;html=1;shadow=1;rounded=1;fillColor=#e1d5e7;strokeColor=#9673a6;" vertex="1" parent="1">
          <mxGeometry x="990" y="200" width="120" height="60" as="geometry" />
        </mxCell>
        <mxCell id="_OzTPV2B18LDZemACP7o-5" value="Metropolitan Service Calendar" style="whiteSpace=wrap;html=1;shadow=1;rounded=1;fillColor=#e1d5e7;strokeColor=#9673a6;" vertex="1" parent="1">
          <mxGeometry x="850" y="200" width="120" height="60" as="geometry" />
        </mxCell>
        <mxCell id="_OzTPV2B18LDZemACP7o-6" value="Orthodox Content" style="whiteSpace=wrap;html=1;shadow=1;rounded=1;fillColor=#e1d5e7;strokeColor=#9673a6;" vertex="1" parent="1">
          <mxGeometry x="570" y="200" width="120" height="60" as="geometry" />
        </mxCell>
        <mxCell id="_OzTPV2B18LDZemACP7o-7" value="Synaxarion" style="whiteSpace=wrap;html=1;shadow=1;rounded=1;fillColor=#d5e8d4;strokeColor=#82b366;" vertex="1" parent="1">
          <mxGeometry x="-280" y="200" width="120" height="60" as="geometry" />
        </mxCell>
        <mxCell id="_OzTPV2B18LDZemACP7o-8" value="Quotes" style="whiteSpace=wrap;html=1;shadow=1;rounded=1;fillColor=#d5e8d4;strokeColor=#82b366;" vertex="1" parent="1">
          <mxGeometry x="140" y="200" width="120" height="60" as="geometry" />
        </mxCell>
        <mxCell id="_OzTPV2B18LDZemACP7o-9" value="Scripture Reader and Commentary" style="whiteSpace=wrap;html=1;shadow=1;rounded=1;fillColor=#d5e8d4;strokeColor=#82b366;" vertex="1" parent="1">
          <mxGeometry x="-140" y="200" width="120" height="60" as="geometry" />
        </mxCell>
        <mxCell id="_OzTPV2B18LDZemACP7o-10" value="Typikon" style="whiteSpace=wrap;html=1;shadow=1;rounded=1;fillColor=#d5e8d4;strokeColor=#82b366;" vertex="1" parent="1">
          <mxGeometry y="200" width="120" height="60" as="geometry" />
        </mxCell>
        <mxCell id="_OzTPV2B18LDZemACP7o-11" value="Community Apps" style="whiteSpace=wrap;html=1;shadow=1;rounded=1;fillColor=#e1d5e7;strokeColor=#9673a6;" vertex="1" parent="1">
          <mxGeometry x="780" y="90" width="120" height="60" as="geometry" />
        </mxCell>
        <mxCell id="_OzTPV2B18LDZemACP7o-12" value="Service Apps" style="whiteSpace=wrap;html=1;shadow=1;rounded=1;fillColor=#d5e8d4;strokeColor=#82b366;" vertex="1" parent="1">
          <mxGeometry y="80" width="120" height="60" as="geometry" />
        </mxCell>
        <mxCell id="_OzTPV2B18LDZemACP7o-21" style="edgeStyle=orthogonalEdgeStyle;orthogonalLoop=1;jettySize=auto;html=1;entryX=0;entryY=0.5;entryDx=0;entryDy=0;shadow=1;gradientColor=#7ea6e0;fillColor=#dae8fc;strokeColor=#6c8ebf;strokeWidth=3;" edge="1" parent="1" source="_OzTPV2B18LDZemACP7o-13" target="_OzTPV2B18LDZemACP7o-17">
          <mxGeometry relative="1" as="geometry">
            <Array as="points">
              <mxPoint x="410" y="600" />
            </Array>
          </mxGeometry>
        </mxCell>
        <mxCell id="_OzTPV2B18LDZemACP7o-22" value="" style="edgeStyle=orthogonalEdgeStyle;orthogonalLoop=1;jettySize=auto;html=1;entryX=0;entryY=0.5;entryDx=0;entryDy=0;shadow=1;gradientColor=#7ea6e0;fillColor=#dae8fc;strokeColor=#6c8ebf;strokeWidth=3;" edge="1" parent="1" source="_OzTPV2B18LDZemACP7o-13" target="_OzTPV2B18LDZemACP7o-16">
          <mxGeometry relative="1" as="geometry">
            <Array as="points">
              <mxPoint x="410" y="520" />
            </Array>
          </mxGeometry>
        </mxCell>
        <mxCell id="_OzTPV2B18LDZemACP7o-23" style="edgeStyle=orthogonalEdgeStyle;orthogonalLoop=1;jettySize=auto;html=1;entryX=0;entryY=0.5;entryDx=0;entryDy=0;shadow=1;gradientColor=#7ea6e0;fillColor=#dae8fc;strokeColor=#6c8ebf;strokeWidth=3;" edge="1" parent="1" source="_OzTPV2B18LDZemACP7o-13" target="_OzTPV2B18LDZemACP7o-15">
          <mxGeometry relative="1" as="geometry">
            <Array as="points">
              <mxPoint x="410" y="430" />
            </Array>
          </mxGeometry>
        </mxCell>
        <mxCell id="_OzTPV2B18LDZemACP7o-67" style="edgeStyle=orthogonalEdgeStyle;orthogonalLoop=1;jettySize=auto;html=1;shadow=1;" edge="1" parent="1" source="_OzTPV2B18LDZemACP7o-13" target="_OzTPV2B18LDZemACP7o-14">
          <mxGeometry relative="1" as="geometry">
            <Array as="points">
              <mxPoint x="490" y="110" />
              <mxPoint x="490" y="170" />
              <mxPoint x="1190" y="170" />
            </Array>
          </mxGeometry>
        </mxCell>
        <mxCell id="_OzTPV2B18LDZemACP7o-13" value="User Accounts" style="whiteSpace=wrap;html=1;shadow=1;fillColor=#dae8fc;strokeColor=#6c8ebf;rounded=1;" vertex="1" parent="1">
          <mxGeometry x="354" y="80" width="120" height="60" as="geometry" />
        </mxCell>
        <mxCell id="_OzTPV2B18LDZemACP7o-61" style="edgeStyle=orthogonalEdgeStyle;orthogonalLoop=1;jettySize=auto;html=1;entryX=1;entryY=0.75;entryDx=0;entryDy=0;shadow=1;gradientColor=#d5739d;fillColor=#e6d0de;strokeColor=#996185;strokeWidth=3;" edge="1" parent="1" source="_OzTPV2B18LDZemACP7o-14" target="_OzTPV2B18LDZemACP7o-60">
          <mxGeometry relative="1" as="geometry">
            <Array as="points">
              <mxPoint x="1270" y="230" />
              <mxPoint x="1270" y="515" />
            </Array>
          </mxGeometry>
        </mxCell>
        <mxCell id="_OzTPV2B18LDZemACP7o-62" style="edgeStyle=orthogonalEdgeStyle;orthogonalLoop=1;jettySize=auto;html=1;entryX=1;entryY=0.5;entryDx=0;entryDy=0;shadow=1;gradientColor=#d5739d;fillColor=#e6d0de;strokeColor=#996185;strokeWidth=3;" edge="1" parent="1" source="_OzTPV2B18LDZemACP7o-14" target="_OzTPV2B18LDZemACP7o-58">
          <mxGeometry relative="1" as="geometry">
            <Array as="points">
              <mxPoint x="1270" y="230" />
              <mxPoint x="1270" y="410" />
            </Array>
          </mxGeometry>
        </mxCell>
        <mxCell id="_OzTPV2B18LDZemACP7o-63" style="edgeStyle=orthogonalEdgeStyle;orthogonalLoop=1;jettySize=auto;html=1;entryX=1;entryY=0.5;entryDx=0;entryDy=0;shadow=1;gradientColor=#d5739d;fillColor=#e6d0de;strokeColor=#996185;strokeWidth=3;" edge="1" parent="1" source="_OzTPV2B18LDZemACP7o-14" target="_OzTPV2B18LDZemACP7o-55">
          <mxGeometry relative="1" as="geometry">
            <Array as="points">
              <mxPoint x="1270" y="230" />
              <mxPoint x="1270" y="330" />
            </Array>
          </mxGeometry>
        </mxCell>
        <mxCell id="_OzTPV2B18LDZemACP7o-14" value="Synaxis Community Features" style="whiteSpace=wrap;html=1;shadow=1;rounded=1;fillColor=#e1d5e7;strokeColor=#9673a6;" vertex="1" parent="1">
          <mxGeometry x="1130" y="200" width="120" height="60" as="geometry" />
        </mxCell>
        <mxCell id="_OzTPV2B18LDZemACP7o-20" value="" style="edgeStyle=orthogonalEdgeStyle;orthogonalLoop=1;jettySize=auto;html=1;entryX=0.5;entryY=0;entryDx=0;entryDy=0;shadow=1;strokeWidth=4;" edge="1" parent="1" source="_OzTPV2B18LDZemACP7o-15" target="_OzTPV2B18LDZemACP7o-18">
          <mxGeometry relative="1" as="geometry">
            <Array as="points">
              <mxPoint x="510" y="380" />
              <mxPoint x="1050" y="380" />
            </Array>
          </mxGeometry>
        </mxCell>
        <mxCell id="_OzTPV2B18LDZemACP7o-27" style="edgeStyle=orthogonalEdgeStyle;orthogonalLoop=1;jettySize=auto;html=1;entryX=0.5;entryY=1;entryDx=0;entryDy=0;shadow=1;strokeWidth=3;gradientColor=#d5739d;fillColor=#e6d0de;strokeColor=#996185;" edge="1" parent="1" source="_OzTPV2B18LDZemACP7o-15" target="_OzTPV2B18LDZemACP7o-4">
          <mxGeometry relative="1" as="geometry">
            <Array as="points">
              <mxPoint x="490" y="290" />
              <mxPoint x="1050" y="290" />
            </Array>
          </mxGeometry>
        </mxCell>
        <mxCell id="_OzTPV2B18LDZemACP7o-36" style="edgeStyle=orthogonalEdgeStyle;orthogonalLoop=1;jettySize=auto;html=1;entryX=0.558;entryY=0.017;entryDx=0;entryDy=0;entryPerimeter=0;shadow=1;strokeWidth=4;" edge="1" parent="1" source="_OzTPV2B18LDZemACP7o-15" target="_OzTPV2B18LDZemACP7o-35">
          <mxGeometry relative="1" as="geometry">
            <Array as="points">
              <mxPoint x="510" y="380" />
              <mxPoint x="687" y="380" />
            </Array>
          </mxGeometry>
        </mxCell>
        <mxCell id="_OzTPV2B18LDZemACP7o-39" style="edgeStyle=orthogonalEdgeStyle;orthogonalLoop=1;jettySize=auto;html=1;entryX=0.5;entryY=0;entryDx=0;entryDy=0;shadow=1;strokeWidth=4;" edge="1" parent="1" source="_OzTPV2B18LDZemACP7o-15" target="_OzTPV2B18LDZemACP7o-37">
          <mxGeometry relative="1" as="geometry">
            <Array as="points">
              <mxPoint x="510" y="380" />
              <mxPoint x="900" y="380" />
            </Array>
          </mxGeometry>
        </mxCell>
        <mxCell id="_OzTPV2B18LDZemACP7o-44" style="edgeStyle=orthogonalEdgeStyle;orthogonalLoop=1;jettySize=auto;html=1;entryX=0;entryY=0.5;entryDx=0;entryDy=0;shadow=1;fillColor=#a20025;strokeColor=#6F0000;strokeWidth=4;" edge="1" parent="1" source="_OzTPV2B18LDZemACP7o-15" target="_OzTPV2B18LDZemACP7o-34">
          <mxGeometry relative="1" as="geometry">
            <Array as="points">
              <mxPoint x="510" y="480" />
              <mxPoint x="650" y="480" />
              <mxPoint x="650" y="690" />
            </Array>
          </mxGeometry>
        </mxCell>
        <mxCell id="_OzTPV2B18LDZemACP7o-47" style="edgeStyle=orthogonalEdgeStyle;orthogonalLoop=1;jettySize=auto;html=1;entryX=0;entryY=0.5;entryDx=0;entryDy=0;shadow=1;fillColor=#a20025;strokeColor=#6F0000;strokeWidth=4;" edge="1" parent="1" source="_OzTPV2B18LDZemACP7o-15" target="_OzTPV2B18LDZemACP7o-33">
          <mxGeometry relative="1" as="geometry">
            <Array as="points">
              <mxPoint x="510" y="480" />
              <mxPoint x="649" y="480" />
              <mxPoint x="649" y="610" />
            </Array>
          </mxGeometry>
        </mxCell>
        <mxCell id="_OzTPV2B18LDZemACP7o-92" style="edgeStyle=orthogonalEdgeStyle;rounded=0;orthogonalLoop=1;jettySize=auto;html=1;entryX=0.5;entryY=0;entryDx=0;entryDy=0;shadow=1;strokeWidth=3;" edge="1" parent="1" source="_OzTPV2B18LDZemACP7o-15" target="_OzTPV2B18LDZemACP7o-91">
          <mxGeometry relative="1" as="geometry">
            <Array as="points">
              <mxPoint x="510" y="380" />
              <mxPoint x="980" y="380" />
            </Array>
          </mxGeometry>
        </mxCell>
        <mxCell id="_OzTPV2B18LDZemACP7o-15" value="Parish Accounts" style="whiteSpace=wrap;html=1;shadow=1;fillColor=#dae8fc;strokeColor=#6c8ebf;rounded=1;" vertex="1" parent="1">
          <mxGeometry x="450" y="400" width="120" height="60" as="geometry" />
        </mxCell>
        <mxCell id="_OzTPV2B18LDZemACP7o-29" value="" style="edgeStyle=orthogonalEdgeStyle;orthogonalLoop=1;jettySize=auto;html=1;shadow=1;" edge="1" parent="1" source="_OzTPV2B18LDZemACP7o-16" target="_OzTPV2B18LDZemACP7o-28">
          <mxGeometry relative="1" as="geometry" />
        </mxCell>
        <mxCell id="_OzTPV2B18LDZemACP7o-16" value="Vendor Accounts" style="whiteSpace=wrap;html=1;shadow=1;fillColor=#dae8fc;strokeColor=#6c8ebf;rounded=1;" vertex="1" parent="1">
          <mxGeometry x="450" y="490" width="120" height="60" as="geometry" />
        </mxCell>
        <mxCell id="_OzTPV2B18LDZemACP7o-32" value="" style="edgeStyle=orthogonalEdgeStyle;orthogonalLoop=1;jettySize=auto;html=1;shadow=1;strokeWidth=4;" edge="1" parent="1" source="_OzTPV2B18LDZemACP7o-17" target="_OzTPV2B18LDZemACP7o-31">
          <mxGeometry relative="1" as="geometry">
            <mxPoint x="510" y="660" as="targetPoint" />
          </mxGeometry>
        </mxCell>
        <mxCell id="_OzTPV2B18LDZemACP7o-41" style="edgeStyle=orthogonalEdgeStyle;orthogonalLoop=1;jettySize=auto;html=1;entryX=1;entryY=0.5;entryDx=0;entryDy=0;shadow=1;strokeWidth=4;" edge="1" parent="1" source="_OzTPV2B18LDZemACP7o-17" target="_OzTPV2B18LDZemACP7o-40">
          <mxGeometry relative="1" as="geometry">
            <Array as="points">
              <mxPoint x="590" y="600" />
              <mxPoint x="590" y="790" />
            </Array>
          </mxGeometry>
        </mxCell>
        <mxCell id="_OzTPV2B18LDZemACP7o-42" style="edgeStyle=orthogonalEdgeStyle;orthogonalLoop=1;jettySize=auto;html=1;entryX=0;entryY=0.5;entryDx=0;entryDy=0;shadow=1;fillColor=#a20025;strokeColor=#6F0000;strokeWidth=4;" edge="1" parent="1" source="_OzTPV2B18LDZemACP7o-17" target="_OzTPV2B18LDZemACP7o-34">
          <mxGeometry relative="1" as="geometry">
            <Array as="points">
              <mxPoint x="650" y="610" />
              <mxPoint x="650" y="690" />
            </Array>
          </mxGeometry>
        </mxCell>
        <mxCell id="_OzTPV2B18LDZemACP7o-45" style="edgeStyle=orthogonalEdgeStyle;orthogonalLoop=1;jettySize=auto;html=1;entryX=0;entryY=0.5;entryDx=0;entryDy=0;shadow=1;fillColor=#a20025;strokeColor=#6F0000;strokeWidth=4;" edge="1" parent="1" source="_OzTPV2B18LDZemACP7o-17" target="_OzTPV2B18LDZemACP7o-33">
          <mxGeometry relative="1" as="geometry">
            <Array as="points">
              <mxPoint x="630" y="610" />
              <mxPoint x="630" y="610" />
            </Array>
          </mxGeometry>
        </mxCell>
        <mxCell id="_OzTPV2B18LDZemACP7o-17" value="Creator Accounts" style="whiteSpace=wrap;html=1;shadow=1;fillColor=#dae8fc;strokeColor=#6c8ebf;rounded=1;" vertex="1" parent="1">
          <mxGeometry x="450" y="570" width="120" height="60" as="geometry" />
        </mxCell>
        <mxCell id="_OzTPV2B18LDZemACP7o-19" value="" style="edgeStyle=orthogonalEdgeStyle;orthogonalLoop=1;jettySize=auto;html=1;shadow=1;strokeWidth=4;" edge="1" parent="1" source="_OzTPV2B18LDZemACP7o-18" target="_OzTPV2B18LDZemACP7o-5">
          <mxGeometry relative="1" as="geometry">
            <Array as="points">
              <mxPoint x="1080" y="340" />
              <mxPoint x="910" y="340" />
            </Array>
          </mxGeometry>
        </mxCell>
        <mxCell id="_OzTPV2B18LDZemACP7o-18" value="Parish Service Calendar" style="whiteSpace=wrap;html=1;shadow=1;rounded=1;fillColor=#b0e3e6;strokeColor=#0e8088;" vertex="1" parent="1">
          <mxGeometry x="990" y="400" width="120" height="60" as="geometry" />
        </mxCell>
        <mxCell id="_OzTPV2B18LDZemACP7o-30" style="edgeStyle=orthogonalEdgeStyle;orthogonalLoop=1;jettySize=auto;html=1;entryX=0.5;entryY=1;entryDx=0;entryDy=0;shadow=1;strokeWidth=4;gradientColor=#ea6b66;fillColor=#f8cecc;strokeColor=#b85450;" edge="1" parent="1" source="_OzTPV2B18LDZemACP7o-28" target="_OzTPV2B18LDZemACP7o-3">
          <mxGeometry relative="1" as="geometry">
            <Array as="points">
              <mxPoint x="767" y="430" />
              <mxPoint x="767" y="430" />
            </Array>
          </mxGeometry>
        </mxCell>
        <mxCell id="_OzTPV2B18LDZemACP7o-28" value="e-Commerce Shop" style="whiteSpace=wrap;html=1;shadow=1;rounded=1;fillColor=#fad9d5;strokeColor=#ae4132;" vertex="1" parent="1">
          <mxGeometry x="727" y="490" width="120" height="60" as="geometry" />
        </mxCell>
        <mxCell id="_OzTPV2B18LDZemACP7o-31" value="Patron Subscription" style="whiteSpace=wrap;html=1;shadow=1;rounded=1;fillColor=#b0e3e6;strokeColor=#0e8088;" vertex="1" parent="1">
          <mxGeometry x="450" y="670" width="120" height="60" as="geometry" />
        </mxCell>
        <mxCell id="_OzTPV2B18LDZemACP7o-48" style="edgeStyle=orthogonalEdgeStyle;orthogonalLoop=1;jettySize=auto;html=1;entryX=0.75;entryY=1;entryDx=0;entryDy=0;shadow=1;fillColor=#fad9d5;strokeColor=#ae4132;strokeWidth=5;" edge="1" parent="1" source="_OzTPV2B18LDZemACP7o-33" target="_OzTPV2B18LDZemACP7o-35">
          <mxGeometry relative="1" as="geometry">
            <Array as="points">
              <mxPoint x="710" y="590" />
            </Array>
          </mxGeometry>
        </mxCell>
        <mxCell id="_OzTPV2B18LDZemACP7o-49" style="edgeStyle=orthogonalEdgeStyle;orthogonalLoop=1;jettySize=auto;html=1;entryX=0.25;entryY=1;entryDx=0;entryDy=0;shadow=1;fillColor=#fad9d5;strokeColor=#ae4132;strokeWidth=5;" edge="1" parent="1" source="_OzTPV2B18LDZemACP7o-33" target="_OzTPV2B18LDZemACP7o-37">
          <mxGeometry relative="1" as="geometry">
            <Array as="points">
              <mxPoint x="870" y="610" />
            </Array>
          </mxGeometry>
        </mxCell>
        <mxCell id="_OzTPV2B18LDZemACP7o-94" style="edgeStyle=orthogonalEdgeStyle;rounded=1;orthogonalLoop=1;jettySize=auto;html=1;entryX=1;entryY=0.25;entryDx=0;entryDy=0;shadow=1;strokeWidth=4;fillColor=#fad9d5;strokeColor=#ae4132;" edge="1" parent="1" source="_OzTPV2B18LDZemACP7o-33" target="_OzTPV2B18LDZemACP7o-40">
          <mxGeometry relative="1" as="geometry">
            <Array as="points">
              <mxPoint x="670" y="630" />
              <mxPoint x="670" y="775" />
            </Array>
          </mxGeometry>
        </mxCell>
        <mxCell id="_OzTPV2B18LDZemACP7o-33" value="Audio Syndication" style="whiteSpace=wrap;html=1;shadow=1;rounded=1;fillColor=#fad9d5;strokeColor=#ae4132;" vertex="1" parent="1">
          <mxGeometry x="727" y="580" width="120" height="60" as="geometry" />
        </mxCell>
        <mxCell id="_OzTPV2B18LDZemACP7o-50" style="edgeStyle=orthogonalEdgeStyle;orthogonalLoop=1;jettySize=auto;html=1;entryX=0.5;entryY=1;entryDx=0;entryDy=0;shadow=1;fillColor=#b1ddf0;strokeColor=#10739e;strokeWidth=3;" edge="1" parent="1" source="_OzTPV2B18LDZemACP7o-34" target="_OzTPV2B18LDZemACP7o-37">
          <mxGeometry relative="1" as="geometry">
            <Array as="points">
              <mxPoint x="900" y="690" />
            </Array>
          </mxGeometry>
        </mxCell>
        <mxCell id="_OzTPV2B18LDZemACP7o-51" style="edgeStyle=orthogonalEdgeStyle;orthogonalLoop=1;jettySize=auto;html=1;entryX=0.5;entryY=1;entryDx=0;entryDy=0;shadow=1;fillColor=#b1ddf0;strokeColor=#10739e;strokeWidth=3;" edge="1" parent="1" source="_OzTPV2B18LDZemACP7o-34" target="_OzTPV2B18LDZemACP7o-35">
          <mxGeometry relative="1" as="geometry">
            <Array as="points">
              <mxPoint x="680" y="670" />
            </Array>
          </mxGeometry>
        </mxCell>
        <mxCell id="_OzTPV2B18LDZemACP7o-93" style="edgeStyle=orthogonalEdgeStyle;rounded=0;orthogonalLoop=1;jettySize=auto;html=1;entryX=0.5;entryY=1;entryDx=0;entryDy=0;shadow=1;strokeWidth=3;fillColor=#b1ddf0;strokeColor=#10739e;" edge="1" parent="1" source="_OzTPV2B18LDZemACP7o-34" target="_OzTPV2B18LDZemACP7o-91">
          <mxGeometry relative="1" as="geometry" />
        </mxCell>
        <mxCell id="_OzTPV2B18LDZemACP7o-34" value="Live Streaming" style="whiteSpace=wrap;html=1;shadow=1;rounded=1;fillColor=#fad9d5;strokeColor=#ae4132;" vertex="1" parent="1">
          <mxGeometry x="727" y="660" width="120" height="60" as="geometry" />
        </mxCell>
        <mxCell id="_OzTPV2B18LDZemACP7o-52" style="edgeStyle=orthogonalEdgeStyle;orthogonalLoop=1;jettySize=auto;html=1;entryX=0.5;entryY=1;entryDx=0;entryDy=0;shadow=1;strokeWidth=4;gradientColor=#7ea6e0;fillColor=#dae8fc;strokeColor=#6c8ebf;" edge="1" parent="1" source="_OzTPV2B18LDZemACP7o-35" target="_OzTPV2B18LDZemACP7o-6">
          <mxGeometry relative="1" as="geometry">
            <Array as="points">
              <mxPoint x="670" y="340" />
              <mxPoint x="630" y="340" />
            </Array>
          </mxGeometry>
        </mxCell>
        <mxCell id="_OzTPV2B18LDZemACP7o-35" value="Homily Index" style="whiteSpace=wrap;html=1;shadow=1;rounded=1;fillColor=#b0e3e6;strokeColor=#0e8088;" vertex="1" parent="1">
          <mxGeometry x="620" y="400" width="120" height="60" as="geometry" />
        </mxCell>
        <mxCell id="_OzTPV2B18LDZemACP7o-53" style="edgeStyle=orthogonalEdgeStyle;orthogonalLoop=1;jettySize=auto;html=1;shadow=1;strokeWidth=4;gradientColor=#7ea6e0;fillColor=#dae8fc;strokeColor=#6c8ebf;" edge="1" parent="1" source="_OzTPV2B18LDZemACP7o-37">
          <mxGeometry relative="1" as="geometry">
            <mxPoint x="630" y="260" as="targetPoint" />
            <Array as="points">
              <mxPoint x="880" y="340" />
              <mxPoint x="630" y="340" />
            </Array>
          </mxGeometry>
        </mxCell>
        <mxCell id="_OzTPV2B18LDZemACP7o-37" value="Catechesis" style="whiteSpace=wrap;html=1;shadow=1;rounded=1;fillColor=#b0e3e6;strokeColor=#0e8088;" vertex="1" parent="1">
          <mxGeometry x="840" y="400" width="120" height="60" as="geometry" />
        </mxCell>
        <mxCell id="_OzTPV2B18LDZemACP7o-54" style="edgeStyle=orthogonalEdgeStyle;orthogonalLoop=1;jettySize=auto;html=1;shadow=1;strokeWidth=4;gradientColor=#7ea6e0;fillColor=#dae8fc;strokeColor=#6c8ebf;" edge="1" parent="1" source="_OzTPV2B18LDZemACP7o-40">
          <mxGeometry relative="1" as="geometry">
            <mxPoint x="610" y="260" as="targetPoint" />
            <Array as="points">
              <mxPoint x="610" y="800" />
            </Array>
          </mxGeometry>
        </mxCell>
        <mxCell id="_OzTPV2B18LDZemACP7o-40" value="Podcasts" style="whiteSpace=wrap;html=1;shadow=1;rounded=1;fillColor=#b0e3e6;strokeColor=#0e8088;" vertex="1" parent="1">
          <mxGeometry x="450" y="760" width="120" height="60" as="geometry" />
        </mxCell>
        <mxCell id="_OzTPV2B18LDZemACP7o-64" style="edgeStyle=orthogonalEdgeStyle;orthogonalLoop=1;jettySize=auto;html=1;entryX=0;entryY=0.5;entryDx=0;entryDy=0;shadow=1;strokeWidth=3;" edge="1" parent="1" source="_OzTPV2B18LDZemACP7o-55" target="_OzTPV2B18LDZemACP7o-56">
          <mxGeometry relative="1" as="geometry">
            <Array as="points">
              <mxPoint x="1190" y="280" />
              <mxPoint x="1320" y="280" />
              <mxPoint x="1320" y="330" />
            </Array>
          </mxGeometry>
        </mxCell>
        <mxCell id="_OzTPV2B18LDZemACP7o-65" style="edgeStyle=orthogonalEdgeStyle;orthogonalLoop=1;jettySize=auto;html=1;entryX=0;entryY=0.5;entryDx=0;entryDy=0;shadow=1;strokeWidth=3;" edge="1" parent="1" source="_OzTPV2B18LDZemACP7o-55" target="_OzTPV2B18LDZemACP7o-57">
          <mxGeometry relative="1" as="geometry">
            <Array as="points">
              <mxPoint x="1190" y="280" />
              <mxPoint x="1320" y="280" />
              <mxPoint x="1320" y="420" />
            </Array>
          </mxGeometry>
        </mxCell>
        <mxCell id="_OzTPV2B18LDZemACP7o-66" style="edgeStyle=orthogonalEdgeStyle;orthogonalLoop=1;jettySize=auto;html=1;entryX=0;entryY=0.5;entryDx=0;entryDy=0;shadow=1;strokeWidth=3;" edge="1" parent="1" source="_OzTPV2B18LDZemACP7o-55" target="_OzTPV2B18LDZemACP7o-59">
          <mxGeometry relative="1" as="geometry">
            <Array as="points">
              <mxPoint x="1190" y="280" />
              <mxPoint x="1320" y="280" />
              <mxPoint x="1320" y="510" />
            </Array>
          </mxGeometry>
        </mxCell>
        <mxCell id="_OzTPV2B18LDZemACP7o-55" value="Profiles" style="whiteSpace=wrap;html=1;shadow=1;rounded=1;fillColor=#b1ddf0;strokeColor=#10739e;" vertex="1" parent="1">
          <mxGeometry x="1130" y="300" width="120" height="60" as="geometry" />
        </mxCell>
        <mxCell id="_OzTPV2B18LDZemACP7o-56" value="Galleries" style="whiteSpace=wrap;html=1;shadow=1;rounded=1;fillColor=#b1ddf0;strokeColor=#10739e;" vertex="1" parent="1">
          <mxGeometry x="1360" y="300" width="120" height="60" as="geometry" />
        </mxCell>
        <mxCell id="_OzTPV2B18LDZemACP7o-57" value="Videos" style="whiteSpace=wrap;html=1;shadow=1;rounded=1;fillColor=#b1ddf0;strokeColor=#10739e;" vertex="1" parent="1">
          <mxGeometry x="1360" y="390" width="120" height="60" as="geometry" />
        </mxCell>
        <mxCell id="_OzTPV2B18LDZemACP7o-58" value="Messaging" style="whiteSpace=wrap;html=1;shadow=1;rounded=1;fillColor=#b1ddf0;strokeColor=#10739e;" vertex="1" parent="1">
          <mxGeometry x="1130" y="380" width="120" height="60" as="geometry" />
        </mxCell>
        <mxCell id="_OzTPV2B18LDZemACP7o-59" value="Statuses" style="whiteSpace=wrap;html=1;shadow=1;rounded=1;fillColor=#b1ddf0;strokeColor=#10739e;" vertex="1" parent="1">
          <mxGeometry x="1360" y="480" width="120" height="60" as="geometry" />
        </mxCell>
        <mxCell id="_OzTPV2B18LDZemACP7o-60" value="Groups" style="whiteSpace=wrap;html=1;shadow=1;rounded=1;fillColor=#b1ddf0;strokeColor=#10739e;" vertex="1" parent="1">
          <mxGeometry x="1130" y="470" width="120" height="60" as="geometry" />
        </mxCell>
        <mxCell id="_OzTPV2B18LDZemACP7o-80" style="edgeStyle=orthogonalEdgeStyle;orthogonalLoop=1;jettySize=auto;html=1;shadow=1;strokeWidth=4;" edge="1" parent="1" source="_OzTPV2B18LDZemACP7o-68" target="_OzTPV2B18LDZemACP7o-2">
          <mxGeometry relative="1" as="geometry">
            <Array as="points">
              <mxPoint x="230" y="440" />
              <mxPoint x="340" y="440" />
            </Array>
          </mxGeometry>
        </mxCell>
        <mxCell id="_OzTPV2B18LDZemACP7o-86" style="edgeStyle=orthogonalEdgeStyle;orthogonalLoop=1;jettySize=auto;html=1;shadow=1;strokeWidth=4;gradientColor=#97d077;fillColor=#d5e8d4;strokeColor=#82b366;" edge="1" parent="1" source="_OzTPV2B18LDZemACP7o-68" target="_OzTPV2B18LDZemACP7o-9">
          <mxGeometry relative="1" as="geometry">
            <Array as="points">
              <mxPoint x="170" y="390" />
              <mxPoint x="-80" y="390" />
            </Array>
          </mxGeometry>
        </mxCell>
        <mxCell id="_OzTPV2B18LDZemACP7o-88" style="edgeStyle=orthogonalEdgeStyle;orthogonalLoop=1;jettySize=auto;html=1;shadow=1;strokeWidth=3;gradientColor=#ea6b66;fillColor=#f8cecc;strokeColor=#b85450;" edge="1" parent="1" source="_OzTPV2B18LDZemACP7o-68" target="_OzTPV2B18LDZemACP7o-8">
          <mxGeometry relative="1" as="geometry">
            <Array as="points">
              <mxPoint x="200" y="470" />
              <mxPoint x="200" y="470" />
            </Array>
          </mxGeometry>
        </mxCell>
        <mxCell id="_OzTPV2B18LDZemACP7o-68" value="Quotes SDK" style="whiteSpace=wrap;html=1;shadow=1;rounded=1;fillColor=#fff2cc;strokeColor=#d6b656;" vertex="1" parent="1">
          <mxGeometry x="140" y="490" width="120" height="60" as="geometry" />
        </mxCell>
        <mxCell id="_OzTPV2B18LDZemACP7o-76" style="edgeStyle=orthogonalEdgeStyle;orthogonalLoop=1;jettySize=auto;html=1;entryX=0.5;entryY=1;entryDx=0;entryDy=0;shadow=1;strokeWidth=4;" edge="1" parent="1" source="_OzTPV2B18LDZemACP7o-69" target="_OzTPV2B18LDZemACP7o-2">
          <mxGeometry relative="1" as="geometry" />
        </mxCell>
        <mxCell id="_OzTPV2B18LDZemACP7o-77" style="edgeStyle=orthogonalEdgeStyle;orthogonalLoop=1;jettySize=auto;html=1;shadow=1;strokeWidth=3;gradientColor=#d5739d;fillColor=#e6d0de;strokeColor=#996185;" edge="1" parent="1" source="_OzTPV2B18LDZemACP7o-69" target="_OzTPV2B18LDZemACP7o-4">
          <mxGeometry relative="1" as="geometry">
            <Array as="points">
              <mxPoint x="370" y="290" />
              <mxPoint x="1050" y="290" />
            </Array>
          </mxGeometry>
        </mxCell>
        <mxCell id="_OzTPV2B18LDZemACP7o-69" value="Interactive Map SDK" style="whiteSpace=wrap;html=1;shadow=1;rounded=1;fillColor=#fff2cc;strokeColor=#d6b656;" vertex="1" parent="1">
          <mxGeometry x="280" y="490" width="120" height="60" as="geometry" />
        </mxCell>
        <mxCell id="_OzTPV2B18LDZemACP7o-84" style="edgeStyle=orthogonalEdgeStyle;orthogonalLoop=1;jettySize=auto;html=1;shadow=1;strokeWidth=3;gradientColor=#97d077;fillColor=#d5e8d4;strokeColor=#82b366;" edge="1" parent="1" source="_OzTPV2B18LDZemACP7o-70" target="_OzTPV2B18LDZemACP7o-74">
          <mxGeometry relative="1" as="geometry" />
        </mxCell>
        <mxCell id="_OzTPV2B18LDZemACP7o-70" value="KJV npm Package" style="whiteSpace=wrap;html=1;shadow=1;rounded=1;fillColor=#fff2cc;strokeColor=#d6b656;" vertex="1" parent="1">
          <mxGeometry x="-140" y="590" width="120" height="60" as="geometry" />
        </mxCell>
        <mxCell id="_OzTPV2B18LDZemACP7o-85" style="edgeStyle=orthogonalEdgeStyle;orthogonalLoop=1;jettySize=auto;html=1;shadow=1;strokeWidth=4;gradientColor=#97d077;fillColor=#d5e8d4;strokeColor=#82b366;" edge="1" parent="1" source="_OzTPV2B18LDZemACP7o-71" target="_OzTPV2B18LDZemACP7o-9">
          <mxGeometry relative="1" as="geometry">
            <Array as="points">
              <mxPoint x="30" y="390" />
              <mxPoint x="-80" y="390" />
            </Array>
          </mxGeometry>
        </mxCell>
        <mxCell id="_OzTPV2B18LDZemACP7o-87" style="edgeStyle=orthogonalEdgeStyle;orthogonalLoop=1;jettySize=auto;html=1;shadow=1;strokeWidth=3;gradientColor=#7ea6e0;fillColor=#dae8fc;strokeColor=#6c8ebf;" edge="1" parent="1" source="_OzTPV2B18LDZemACP7o-71" target="_OzTPV2B18LDZemACP7o-10">
          <mxGeometry relative="1" as="geometry" />
        </mxCell>
        <mxCell id="_OzTPV2B18LDZemACP7o-71" value="Lectionary SDK" style="whiteSpace=wrap;html=1;shadow=1;rounded=1;fillColor=#fff2cc;strokeColor=#d6b656;" vertex="1" parent="1">
          <mxGeometry y="490" width="120" height="60" as="geometry" />
        </mxCell>
        <mxCell id="_OzTPV2B18LDZemACP7o-82" style="edgeStyle=orthogonalEdgeStyle;orthogonalLoop=1;jettySize=auto;html=1;shadow=1;strokeWidth=3;gradientColor=#7ea6e0;fillColor=#dae8fc;strokeColor=#6c8ebf;" edge="1" parent="1" source="_OzTPV2B18LDZemACP7o-72" target="_OzTPV2B18LDZemACP7o-71">
          <mxGeometry relative="1" as="geometry" />
        </mxCell>
        <mxCell id="_OzTPV2B18LDZemACP7o-72" value="Typikon API" style="whiteSpace=wrap;html=1;shadow=1;rounded=1;fillColor=#ffe6cc;strokeColor=#d79b00;" vertex="1" parent="1">
          <mxGeometry y="590" width="120" height="60" as="geometry" />
        </mxCell>
        <mxCell id="_OzTPV2B18LDZemACP7o-81" style="edgeStyle=orthogonalEdgeStyle;orthogonalLoop=1;jettySize=auto;html=1;shadow=1;strokeWidth=3;gradientColor=#ea6b66;fillColor=#f8cecc;strokeColor=#b85450;" edge="1" parent="1" source="_OzTPV2B18LDZemACP7o-73" target="_OzTPV2B18LDZemACP7o-68">
          <mxGeometry relative="1" as="geometry" />
        </mxCell>
        <mxCell id="_OzTPV2B18LDZemACP7o-73" value="Quotes API" style="whiteSpace=wrap;html=1;shadow=1;rounded=1;fillColor=#ffe6cc;strokeColor=#d79b00;" vertex="1" parent="1">
          <mxGeometry x="140" y="590" width="120" height="60" as="geometry" />
        </mxCell>
        <mxCell id="_OzTPV2B18LDZemACP7o-83" style="edgeStyle=orthogonalEdgeStyle;orthogonalLoop=1;jettySize=auto;html=1;entryX=0.5;entryY=1;entryDx=0;entryDy=0;shadow=1;strokeWidth=4;gradientColor=#97d077;fillColor=#d5e8d4;strokeColor=#82b366;" edge="1" parent="1" source="_OzTPV2B18LDZemACP7o-74" target="_OzTPV2B18LDZemACP7o-9">
          <mxGeometry relative="1" as="geometry" />
        </mxCell>
        <mxCell id="_OzTPV2B18LDZemACP7o-89" style="edgeStyle=orthogonalEdgeStyle;orthogonalLoop=1;jettySize=auto;html=1;entryX=0.5;entryY=1;entryDx=0;entryDy=0;shadow=1;strokeWidth=3;gradientColor=#ea6b66;fillColor=#f8cecc;strokeColor=#b85450;" edge="1" parent="1" source="_OzTPV2B18LDZemACP7o-74" target="_OzTPV2B18LDZemACP7o-8">
          <mxGeometry relative="1" as="geometry">
            <Array as="points">
              <mxPoint x="-40" y="370" />
              <mxPoint x="200" y="370" />
            </Array>
          </mxGeometry>
        </mxCell>
        <mxCell id="_OzTPV2B18LDZemACP7o-74" value="Scripture API" style="whiteSpace=wrap;html=1;shadow=1;rounded=1;fillColor=#ffe6cc;strokeColor=#d79b00;" vertex="1" parent="1">
          <mxGeometry x="-140" y="490" width="120" height="60" as="geometry" />
        </mxCell>
        <mxCell id="_OzTPV2B18LDZemACP7o-78" style="edgeStyle=orthogonalEdgeStyle;orthogonalLoop=1;jettySize=auto;html=1;entryX=0.5;entryY=1;entryDx=0;entryDy=0;shadow=1;strokeWidth=3;" edge="1" parent="1" source="_OzTPV2B18LDZemACP7o-75" target="_OzTPV2B18LDZemACP7o-7">
          <mxGeometry relative="1" as="geometry" />
        </mxCell>
        <mxCell id="_OzTPV2B18LDZemACP7o-79" style="edgeStyle=orthogonalEdgeStyle;orthogonalLoop=1;jettySize=auto;html=1;shadow=1;strokeWidth=4;" edge="1" parent="1" source="_OzTPV2B18LDZemACP7o-75" target="_OzTPV2B18LDZemACP7o-2">
          <mxGeometry relative="1" as="geometry" />
        </mxCell>
        <mxCell id="_OzTPV2B18LDZemACP7o-75" value="Synaxarion API" style="whiteSpace=wrap;html=1;shadow=1;rounded=1;fillColor=#ffe6cc;strokeColor=#d79b00;" vertex="1" parent="1">
          <mxGeometry x="-280" y="410" width="120" height="60" as="geometry" />
        </mxCell>
        <mxCell id="_OzTPV2B18LDZemACP7o-91" value="Services" style="rounded=1;whiteSpace=wrap;html=1;shadow=1;strokeColor=#0e8088;fillColor=#b0e3e6;" vertex="1" parent="1">
          <mxGeometry x="920" y="490" width="120" height="60" as="geometry" />
        </mxCell>
      </root>
    </mxGraphModel>
  </diagram>
</mxfile>
